<svg width="31" height="30" viewBox="0 0 31 30" fill="none" xmlns="http://www.w3.org/2000/svg">
<path fill-rule="evenodd" clip-rule="evenodd" d="M17.2923 3.5125L25.0007 7.675C26.2257 8.33902 26.9835 9.59806 26.9791 10.9625V19.0375C26.9835 20.4019 26.2257 21.661 25.0007 22.325L17.2923 26.4875C16.1262 27.1196 14.707 27.1196 13.5409 26.4875L5.83262 22.325C4.60754 21.661 3.84983 20.4019 3.85414 19.0375V10.9625C3.84983 9.59806 4.60754 8.33902 5.83262 7.675L13.5409 3.5125C14.707 2.88044 16.1262 2.88044 17.2923 3.5125ZM24.0114 20.6875C24.6201 20.3486 24.9971 19.7198 25.0007 19.0375V10.9625C24.9971 10.2802 24.6201 9.65142 24.0114 9.3125L16.3031 5.15C15.7201 4.83397 15.0105 4.83397 14.4274 5.15L6.71907 9.3125C6.11043 9.65142 5.73346 10.2802 5.72984 10.9625V19.0375C5.73346 19.7198 6.11043 20.3486 6.71907 20.6875L14.4274 24.85C15.0105 25.166 15.7201 25.166 16.3031 24.85L24.0114 20.6875Z" fill="white"/>
<path d="M21.4292 10.25L15.9948 13.1875C15.637 13.3885 15.1963 13.3885 14.8385 13.1875L9.40416 10.25C9.10288 10.0784 8.72979 10.0789 8.42892 10.2511C8.12804 10.4233 7.94643 10.7404 7.95419 11.08C7.96195 11.4195 8.15787 11.7285 8.46632 11.8875L13.9007 14.825C14.081 14.9181 14.2703 14.9935 14.466 15.05V20.625C14.466 21.1428 14.8974 21.5625 15.4295 21.5625C15.9617 21.5625 16.3931 21.1428 16.3931 20.625V15C16.5808 14.9499 16.7619 14.8786 16.9326 14.7875L22.367 11.85C22.8195 11.5924 22.9772 11.0301 22.722 10.5845C22.4668 10.139 21.8924 9.97366 21.4292 10.2125V10.25Z" fill="white"/>
</svg>
