<svg width="24" height="24" viewBox="0 0 24 24" fill="none" xmlns="http://www.w3.org/2000/svg">
<path d="M9.77 5.71026H3.77C3.35579 5.71026 3.02 6.04605 3.02 6.46026C3.02 6.87448 3.35579 7.21026 3.77 7.21026H9.77C10.1842 7.21026 10.52 6.87448 10.52 6.46026C10.52 6.04605 10.1842 5.71026 9.77 5.71026Z" fill="#0d6efd"/>
<path fill-rule="evenodd" clip-rule="evenodd" d="M5.68 13.1003H3.77C3.35579 13.1003 3.02 12.7645 3.02 12.3503C3.02 11.9361 3.35579 11.6003 3.77 11.6003H5.68C6.04483 10.5787 7.09184 9.96785 8.16068 10.153C9.22952 10.3381 10.0101 11.2655 10.0101 12.3503C10.0101 13.435 9.22952 14.3624 8.16068 14.5475C7.09184 14.7327 6.04483 14.1218 5.68 13.1003ZM7.77 13.0803C8.17317 13.0803 8.5 12.7534 8.5 12.3503C8.5 11.9471 8.17317 11.6203 7.77 11.6203C7.57639 11.6203 7.39072 11.6972 7.25381 11.8341C7.11691 11.971 7.04 12.1567 7.04 12.3503C7.04 12.7534 7.36683 13.0803 7.77 13.0803Z" fill="#0d6efd"/>
<path fill-rule="evenodd" clip-rule="evenodd" d="M15.49 7.17026C15.1484 7.97715 14.366 8.50922 13.49 8.53026V8.46026C12.3304 8.4647 11.3609 7.57964 11.2599 6.42442C11.159 5.26919 11.9603 4.22938 13.1031 4.03262C14.2459 3.83585 15.3488 4.5478 15.64 5.67026C15.6831 5.66461 15.7268 5.66461 15.77 5.67026H19.72C20.1342 5.67026 20.47 6.00605 20.47 6.42026C20.47 6.83448 20.1342 7.17026 19.72 7.17026H15.72C15.6436 7.17978 15.5664 7.17978 15.49 7.17026ZM14.2237 6.22723C14.2059 5.83559 13.882 5.52789 13.49 5.53026V5.57026C13.2891 5.57254 13.0981 5.65748 12.9619 5.80507C12.8256 5.95267 12.7562 6.14987 12.77 6.35026C12.8183 6.73931 13.1653 7.02071 13.556 6.98765C13.9466 6.95459 14.2414 6.61887 14.2237 6.22723Z" fill="#0d6efd"/>
<path d="M9.77 17.8103H3.77C3.34474 17.8103 3 18.155 3 18.5803C3 19.0055 3.34474 19.3503 3.77 19.3503H9.77C10.1842 19.3503 10.52 19.0145 10.52 18.6003C10.52 18.1861 10.1842 17.8503 9.77 17.8503V17.8103Z" fill="#0d6efd"/>
<path fill-rule="evenodd" clip-rule="evenodd" d="M15.9 17.8103H19.77V17.8503C20.1842 17.8503 20.52 18.186 20.52 18.6003C20.52 19.0145 20.1842 19.3503 19.77 19.3503H15.77C15.3125 20.3227 14.2242 20.8278 13.1862 20.5495C12.1483 20.2711 11.4587 19.2893 11.5491 18.2185C11.6395 17.1476 12.4839 16.2953 13.5538 16.1949C14.6238 16.0945 15.612 16.7749 15.9 17.8103ZM13.0885 18.6866C13.2046 18.9591 13.4739 19.1343 13.77 19.1303C14.1693 19.1248 14.49 18.7996 14.49 18.4003C14.49 18.1041 14.311 17.8373 14.037 17.7249C13.763 17.6125 13.4482 17.6769 13.2403 17.8877C13.0323 18.0986 12.9723 18.4142 13.0885 18.6866Z" fill="#0d6efd"/>
<path d="M19.77 11.6003H11.77C11.3558 11.6003 11.02 11.9361 11.02 12.3503C11.02 12.7645 11.3558 13.1003 11.77 13.1003H19.77C20.1842 13.1003 20.52 12.7645 20.52 12.3503C20.52 11.9361 20.1842 11.6003 19.77 11.6003Z" fill="#0d6efd"/>
</svg>
