<svg width="25" height="25" viewBox="0 0 25 25" fill="none" xmlns="http://www.w3.org/2000/svg">
<path fill-rule="evenodd" clip-rule="evenodd" d="M7.67291 19.9447C4.24948 18.5156 2.01765 15.1721 2.01088 11.4624C1.99321 7.46416 4.5572 3.91123 8.35729 2.66812C12.1574 1.42502 16.3255 2.77572 18.6742 6.01139C21.0229 9.24706 21.0157 13.6285 18.6563 16.8565L21.5339 19.7389C21.8261 20.032 21.8257 20.5063 21.533 20.7989C21.2399 21.0911 20.7656 21.0907 20.473 20.798L17.6854 18.0056C15.043 20.6095 11.0963 21.3738 7.67291 19.9447ZM14.1738 18.6131C17.0605 17.4181 18.9423 14.601 18.9409 11.4767L18.9009 11.4767C18.8991 7.23637 15.4776 3.79122 11.2374 3.76017C8.11314 3.75349 5.29286 5.63054 4.09294 8.51519C2.89303 11.3999 3.55008 14.7233 5.7574 16.9344C7.96472 19.1455 11.2871 19.8081 14.1738 18.6131Z" fill="#0d6efd"/>
</svg>
