<svg width="25" height="25" viewBox="0 0 25 25" fill="" xmlns="http://www.w3.org/2000/svg">
<path d="M19.0125 4.76239C19.0128 4.34818 18.6772 4.01217 18.263 4.0119L5.263 4.00345C4.84878 4.00319 4.51278 4.33875 4.51251 4.75297C4.51224 5.16718 4.84781 5.50319 5.26202 5.50345L18.262 5.5119C18.4617 5.51475 18.6541 5.43673 18.7955 5.29558C18.9368 5.15442 19.0151 4.96212 19.0125 4.76239Z" fill="#0d6efd"/>
<path d="M19.008 11.7624C19.0082 11.3482 18.6727 11.0122 18.2584 11.0119L5.25845 11.0035C4.84423 11.0032 4.50823 11.3388 4.50796 11.753C4.50769 12.1672 4.84326 12.5032 5.25747 12.5035L18.2575 12.5119C18.4572 12.5147 18.6496 12.4367 18.7909 12.2956C18.9323 12.1544 19.0105 11.9621 19.008 11.7624Z" fill="#0d6efd"/>
<path d="M19.0034 18.7624C19.0037 18.3482 18.6681 18.0122 18.2539 18.0119L5.2539 18.0035C4.83968 18.0032 4.50368 18.3388 4.50341 18.753C4.50314 19.1672 4.83871 19.5032 5.25292 19.5035L18.2529 19.5119C18.4527 19.5147 18.6451 19.4367 18.7864 19.2956C18.9277 19.1544 19.006 18.9621 19.0034 18.7624Z" fill="#0d6efd"/>
</svg>
