<svg width="30" height="30" viewBox="0 0 24 24" fill="none" xmlns="http://www.w3.org/2000/svg">
<path d="M4.75 9C4.33579 9 4 9.33579 4 9.75V13.51C4 13.9242 4.33579 14.26 4.75 14.26C5.16421 14.26 5.5 13.9242 5.5 13.51V9.75C5.5 9.33579 5.16421 9 4.75 9Z" fill="#0d6efd"/>
<path d="M11.75 9C11.3358 9 11 9.33579 11 9.75V13.51C11 13.9242 11.3358 14.26 11.75 14.26C12.1642 14.26 12.5 13.9242 12.5 13.51V9.75C12.5 9.33579 12.1642 9 11.75 9Z" fill="#0d6efd"/>
<path d="M18.75 9C18.3358 9 18 9.33579 18 9.75V13.51C18 13.9242 18.3358 14.26 18.75 14.26C19.1642 14.26 19.5 13.9242 19.5 13.51V9.75C19.5 9.33579 19.1642 9 18.75 9Z" fill="#0d6efd"/>
</svg>
