<svg width="24" height="24" viewBox="0 0 24 24" fill="none" xmlns="http://www.w3.org/2000/svg">
<path fill-rule="evenodd" clip-rule="evenodd" d="M20.74 6.85999L22 15.2C22.51 18.85 20 22.17 16.6 22.2H7.33999C3.99999 22.2 1.45999 18.85 1.99999 15.2L3.25999 6.85999C3.55912 4.10236 5.82867 1.97731 8.59999 1.85999H15.4C18.1713 1.97731 20.4409 4.10236 20.74 6.85999ZM16.63 20.67C17.7037 20.6545 18.7165 20.1682 19.4 19.34C20.3167 18.2543 20.7147 16.823 20.49 15.42L19.26 7.07999C19.0844 5.04427 17.4399 3.44671 15.4 3.32999H8.59999C6.56005 3.44671 4.91563 5.04427 4.73999 7.07999L3.50999 15.42C3.2853 16.823 3.68329 18.2543 4.59999 19.34C5.2835 20.1682 6.29626 20.6545 7.36999 20.67H16.63Z" fill="#0d6efd"/>
<path d="M15.15 7.05999C14.7358 7.05999 14.4 7.39577 14.4 7.80999C14.4 9.13547 13.3255 10.21 12 10.21C10.6745 10.21 9.59999 9.13547 9.59999 7.80999C9.59999 7.39577 9.2642 7.05999 8.84999 7.05999C8.43578 7.05999 8.09999 7.39577 8.09999 7.80999C8.09999 9.20332 8.84333 10.4908 10.05 11.1875C11.2567 11.8842 12.7433 11.8842 13.95 11.1875C15.1567 10.4908 15.9 9.20332 15.9 7.80999C15.8946 7.39802 15.562 7.06537 15.15 7.05999Z" fill="#0d6efd"/>
</svg>
