<svg width="25" height="25" viewBox="0 0 25 25" fill="none" xmlns="http://www.w3.org/2000/svg">
<g id="Comercial/Shopping">
<g id="Icon">
<path fill-rule="evenodd" clip-rule="evenodd" d="M8.72453 2.5888L15.7241 2.66203C19.0377 2.6967 21.6957 5.41094 21.661 8.72447L21.5878 15.7241C21.5531 19.0376 18.8389 21.6957 15.5254 21.661L8.52576 21.5878C5.21223 21.5531 2.55419 18.8388 2.58886 15.5253L2.66209 8.5257C2.69675 5.21218 5.411 2.55413 8.72453 2.5888ZM15.5411 20.1611C18.024 20.1815 20.0564 18.1912 20.0879 15.7084L20.1611 8.70878C20.1816 6.22586 18.1913 4.19342 15.7085 4.16195L8.70883 4.08872C6.22591 4.06824 4.19348 6.05859 4.162 8.5414L4.08877 15.541C4.0683 18.0239 6.05864 20.0564 8.54145 20.0878L15.5411 20.1611Z" fill="#0d6efd"/>
<path d="M15.3571 7.15844C14.9451 7.15951 14.609 7.48867 14.5993 7.90055C14.5823 8.53167 14.3131 9.12965 13.8519 9.56083C13.3907 9.992 12.776 10.2204 12.1451 10.195C10.845 10.2207 9.76902 9.18978 9.73913 7.8897C9.74346 7.47551 9.4112 7.13623 8.99701 7.1319C8.58282 7.12757 8.24354 7.45982 8.23921 7.87401C8.2607 10.0024 10.001 11.7117 12.1294 11.6949C14.2571 11.7562 16.0328 10.0837 16.0988 7.95624C16.1119 7.75062 16.0399 7.54865 15.8996 7.39774C15.7593 7.24684 15.5631 7.1603 15.3571 7.15844Z" fill="#0d6efd"/>
</g>
</g>
</svg>
