<svg width="24" height="24" viewBox="0 0 24 24" fill="none" xmlns="http://www.w3.org/2000/svg">
<path fill-rule="evenodd" clip-rule="evenodd" d="M4.56808 18.2849C5.71208 18.7239 6.98008 18.9019 6.99408 18.9039C7.02308 18.9089 8.26708 19.1119 10.4251 18.7829C12.5501 18.4589 14.3831 17.0799 14.4011 17.0659C14.4641 17.0249 15.8391 16.1849 17.3261 13.6689C18.8061 11.1639 18.5531 8.33188 18.5501 8.30388C18.5351 8.14588 18.5941 7.99088 18.7121 7.88488C18.7121 7.88488 19.0181 7.60488 19.4261 7.27188C19.1451 7.32288 18.9001 7.35888 18.8521 7.36588C18.6201 7.39488 18.4061 7.27388 18.3181 7.06388C18.2311 6.85288 18.2961 6.60988 18.4781 6.47188C18.4841 6.46888 18.7841 6.23988 19.1541 5.91888C18.6181 6.09988 18.1621 6.18288 18.1351 6.18788C17.9191 6.22188 17.7101 6.12288 17.6091 5.93488C17.6121 5.96088 17.4391 5.79888 16.8281 5.39088C16.2351 4.99588 15.2111 4.97988 14.8671 5.00788C14.8671 5.00788 13.4551 5.18388 12.5931 6.38388C11.7381 7.57288 12.0861 8.99788 12.0891 9.01288C12.1301 9.16988 12.0911 9.33688 11.9861 9.46088C11.8811 9.58388 11.7181 9.64488 11.5621 9.63588L10.6251 9.55488C10.4411 9.54088 9.40708 9.36388 8.35808 8.99288C7.30608 8.62188 6.67808 8.23588 5.80908 7.70288C5.22808 7.34688 4.45908 6.60188 3.95408 6.08388C3.79908 6.56688 3.67908 7.28088 3.93008 8.04388C4.33508 9.27988 5.21208 9.79388 5.22008 9.79888C5.40808 9.90188 5.50808 10.1139 5.47008 10.3249C5.43208 10.5359 5.26408 10.6989 5.05108 10.7299C4.95308 10.7479 4.70408 10.7529 4.15408 10.6389C4.04908 10.6179 3.94608 10.5919 3.84908 10.5609C3.93908 10.9499 4.15108 11.5389 4.64908 12.0559C5.47508 12.9159 6.31108 13.0249 6.34608 13.0289C6.59208 13.0579 6.78208 13.2639 6.78908 13.5119C6.79608 13.7599 6.62308 13.9739 6.38008 14.0179C6.38008 14.0179 5.81008 14.1199 5.45308 14.1549C5.43708 14.1559 5.42108 14.1579 5.40408 14.1589C5.43408 14.2079 5.46508 14.2569 5.49608 14.3039C5.50508 14.3189 5.97108 15.0499 6.74908 15.3929C7.53708 15.7399 8.06808 15.7119 8.07208 15.7099C8.29508 15.6909 8.49808 15.8249 8.57608 16.0299C8.65408 16.2359 8.59208 16.4679 8.41808 16.6019C8.38108 16.6319 7.49208 17.3149 5.99908 17.9269C5.53508 18.1159 5.04308 18.2259 4.56808 18.2849ZM8.11008 19.9719C7.31108 19.9719 6.87008 19.8969 6.83908 19.8909C6.79308 19.8859 5.25808 19.6699 3.93908 19.1089C1.90308 18.2459 1.96208 17.9579 2.01908 17.6799C2.07008 17.4289 2.36208 17.2469 2.61808 17.2859C3.75808 17.4199 4.85208 17.3149 5.62008 17.0009C6.05508 16.8229 6.43508 16.6379 6.75108 16.4679C6.62208 16.4229 6.48708 16.3699 6.34608 16.3079C5.27708 15.8369 4.67608 14.8799 4.65108 14.8389C4.54308 14.6729 4.26908 14.2359 4.19108 13.9799C4.11808 13.7379 4.11108 13.7089 4.11108 13.7089C4.07508 13.5429 4.12508 13.3649 4.24408 13.2449C4.28008 13.2079 4.32208 13.1779 4.36708 13.1529C4.22108 13.0349 4.07408 12.9009 3.92808 12.7499C2.82708 11.6039 2.78508 10.2259 2.78408 10.1679L2.76508 9.78788C2.75608 9.60288 2.85008 9.42888 3.00908 9.33388C3.12808 9.26288 3.27008 9.24688 3.40008 9.28188C3.24108 9.01588 3.09508 8.70888 2.98008 8.35488C2.38008 6.53088 3.33908 4.98988 3.38108 4.92588C3.46408 4.79288 3.60508 4.70788 3.76008 4.69488C3.91808 4.68088 4.06908 4.74188 4.17408 4.85788C4.54908 5.27488 5.66908 6.44388 6.33208 6.84988C7.17908 7.37088 7.73908 7.71388 8.69108 8.04988C9.67008 8.39588 10.6111 8.54988 10.7031 8.55788L11.0241 8.58588C10.9811 7.89988 11.0591 6.80388 11.7811 5.79988C12.9101 4.22888 14.6981 4.01988 14.7741 4.01288C14.8501 4.00488 16.3771 3.88888 17.3831 4.55888C17.7901 4.83088 18.0431 5.01788 18.2031 5.15088C18.4861 5.08488 18.9681 4.95288 19.3851 4.74788L20.2301 4.33088C20.4091 4.23888 20.6251 4.26488 20.7791 4.39688C20.9321 4.52788 20.9911 4.73788 20.9311 4.92988C20.9061 5.00388 20.7471 5.48388 20.4631 5.94088C20.6391 5.87188 20.7721 5.81588 20.7741 5.81488C20.9801 5.73288 21.2151 5.79088 21.3551 5.96188C21.4941 6.13488 21.5031 6.37788 21.3781 6.55988C21.3111 6.65788 20.7051 7.52888 20.1971 7.93488C19.9401 8.14088 19.7111 8.33688 19.5621 8.46688C19.5981 9.27888 19.5811 11.8179 18.1881 14.1769C16.5531 16.9439 15.0211 17.8579 14.9571 17.8949C14.9251 17.9239 12.9601 19.4079 10.5761 19.7709C9.55708 19.9279 8.72708 19.9719 8.11008 19.9719Z" fill="white"/>
</svg>
